<svg xmlns="http://www.w3.org/2000/svg" width="150" height="150" viewBox="0 0 150 150">
<g>
<path d="M 119.59 63.17 C120.43,64.80 120.90,66.67 120.64,67.32 C120.35,68.02 120.13,67.87 120.08,66.95 C119.93,63.94 114.66,57.21 111.10,55.47 C109.12,54.50 105.84,53.62 103.82,53.52 C101.33,53.39 99.02,52.35 96.68,50.29 C91.56,45.80 85.15,43.66 78.48,44.21 C72.17,44.73 70.07,43.45 75.55,42.43 C80.97,41.41 87.48,42.65 92.14,45.59 C94.44,47.04 96.92,48.31 97.67,48.42 C98.41,48.53 99.52,49.12 100.13,49.73 C100.77,50.37 102.74,50.59 104.77,50.26 C107.31,49.85 108.11,50.02 107.60,50.85 C107.16,51.55 107.83,52.36 109.28,52.91 C112.32,54.07 117.60,59.33 119.59,63.17 ZM 90.00 105.00 C90.00,105.55 88.31,105.96 86.25,105.90 C82.90,105.81 82.77,105.71 85.00,105.00 C88.57,103.86 90.00,103.86 90.00,105.00 Z" fill="rgb(26,35,41)"/>
<path d="M 122.50 90.41 C121.24,91.24 117.88,92.10 115.05,92.32 C110.86,92.65 109.99,92.46 110.45,91.28 C110.75,90.49 111.00,89.63 111.00,89.38 C111.00,89.13 111.94,89.43 113.08,90.04 C114.75,90.93 115.55,90.81 117.09,89.42 C118.15,88.46 118.81,87.47 118.55,87.22 C118.30,86.97 118.74,86.11 119.54,85.32 C121.53,83.32 120.90,67.57 118.65,63.45 C118.38,62.95 118.09,62.46 117.80,62.00 C119.10,63.87 120.02,65.72 120.08,66.95 C120.13,67.87 120.35,68.02 120.64,67.32 C120.84,66.84 120.63,65.70 120.17,64.47 C120.42,64.69 120.68,64.51 121.02,63.97 C122.15,62.13 121.12,59.92 117.65,56.75 C113.18,52.67 111.32,53.40 115.42,57.62 C117.15,59.40 118.82,61.60 119.41,62.84 C117.30,59.03 112.23,54.04 109.28,52.91 C107.83,52.36 107.16,51.55 107.60,50.85 C107.71,50.66 107.76,50.50 107.74,50.38 C107.80,50.45 107.83,50.52 107.80,50.61 C107.49,51.52 108.25,52.00 109.98,52.00 C110.60,52.00 110.61,51.11 110.01,49.54 C108.67,46.01 110.72,45.18 113.36,48.17 C114.54,49.51 117.13,51.59 119.11,52.80 C124.11,55.84 126.74,62.59 125.08,68.13 C124.11,71.36 124.20,72.97 125.61,77.43 C127.56,83.63 126.58,87.73 122.50,90.41 ZM 110.50 110.03 C110.50,111.84 105.92,112.52 104.34,110.94 C103.70,110.30 101.68,109.48 99.85,109.10 C95.55,108.22 94.84,105.39 98.56,103.98 C100.71,103.16 101.81,103.31 103.88,104.71 C105.32,105.68 107.40,106.94 108.50,107.52 C109.60,108.09 110.50,109.22 110.50,110.03 ZM 67.32 111.85 C66.11,112.48 64.54,112.99 63.82,112.97 C61.63,112.92 59.00,110.99 59.00,109.45 C59.00,108.65 58.66,108.05 58.25,108.12 C57.84,108.18 56.84,108.18 56.04,108.12 C54.80,108.02 54.82,107.75 56.17,106.40 C57.42,105.15 58.21,105.04 59.82,105.90 C60.95,106.51 63.92,107.00 66.43,107.00 C68.95,107.00 70.99,107.34 70.98,107.75 C70.96,109.10 69.54,110.68 67.32,111.85 ZM 80.49 38.02 C78.27,40.47 73.70,40.59 71.91,38.25 C71.17,37.29 70.95,36.82 71.41,37.21 C71.88,37.61 73.20,37.27 74.35,36.46 C75.50,35.66 77.25,35.00 78.24,35.00 C79.22,35.00 80.86,34.48 81.88,33.84 C84.17,32.41 87.00,33.37 87.00,35.58 C87.00,36.80 86.40,37.07 84.64,36.62 C83.01,36.22 81.72,36.65 80.49,38.02 ZM 37.98 62.84 C37.98,63.20 36.69,64.95 35.13,66.72 C32.70,69.48 32.05,69.75 30.57,68.67 C28.94,67.49 28.95,67.28 30.73,65.09 C32.43,62.98 38.02,61.25 37.98,62.84 ZM 47.78 107.44 C45.22,109.23 44.97,109.27 43.16,108.12 C40.93,106.71 43.89,103.00 47.24,103.00 C50.63,103.00 50.90,105.25 47.78,107.44 ZM 59.40 51.17 C60.38,51.40 59.99,52.11 58.16,53.45 C55.67,55.28 55.60,55.29 57.00,53.53 C58.39,51.78 58.36,51.72 56.52,52.74 C54.81,53.69 54.38,53.42 53.26,50.76 C52.55,49.08 52.19,47.48 52.45,47.21 C53.23,46.43 59.02,49.15 58.48,50.04 C58.20,50.48 58.61,51.00 59.40,51.17 ZM 92.81 111.75 C92.57,113.02 91.34,113.58 88.33,113.80 C86.05,113.97 83.90,113.65 83.56,113.10 C82.70,111.71 86.25,110.00 90.01,110.00 C92.46,110.00 93.07,110.38 92.81,111.75 ZM 95.54 40.39 C95.69,41.82 95.75,42.97 95.66,42.94 C91.40,41.27 86.44,37.00 88.76,37.00 C89.35,37.00 90.44,36.78 91.17,36.51 C93.24,35.75 95.22,37.51 95.54,40.39 ZM 80.01 108.99 C78.90,111.05 76.00,111.79 76.00,110.00 C76.00,109.45 75.32,109.00 74.50,109.00 C72.06,109.00 72.79,107.09 75.50,106.41 C79.38,105.44 81.32,106.54 80.01,108.99 ZM 35.41 103.76 C33.41,105.63 30.79,105.31 31.24,103.25 C31.45,102.29 32.23,101.64 32.98,101.81 C34.06,102.05 34.09,101.82 33.12,100.65 C32.40,99.78 32.29,98.94 32.84,98.60 C33.36,98.28 34.45,99.03 35.26,100.27 C36.48,102.14 36.51,102.74 35.41,103.76 ZM 52.55 112.91 C51.63,114.40 46.73,114.32 47.23,112.82 C47.93,110.70 50.83,109.43 52.09,110.69 C52.71,111.31 52.92,112.31 52.55,112.91 ZM 49.80 56.80 C48.34,58.26 47.32,58.32 46.50,57.00 C45.58,55.51 46.86,54.00 49.06,54.00 C51.27,54.00 51.55,55.05 49.80,56.80 ZM 37.50 111.99 C36.69,113.30 35.29,113.28 34.46,111.93 C33.54,110.44 34.61,109.63 36.52,110.37 C37.40,110.71 37.85,111.44 37.50,111.99 ZM 39.00 100.61 C39.00,100.82 38.33,101.00 37.50,101.00 C36.67,101.00 36.00,100.56 36.00,100.03 C36.00,99.50 36.67,99.32 37.50,99.64 C38.33,99.95 39.00,100.39 39.00,100.61 ZM 100.56 52.79 C99.26,52.26 97.98,51.44 96.68,50.29 C97.97,51.43 99.25,52.25 100.56,52.79 ZM 101.57 50.31 C100.91,50.20 100.40,50.00 100.13,49.73 C100.40,50.00 100.91,50.19 101.57,50.31 Z" fill="rgb(31,42,55)"/>
<path d="M 0.00 0.00 L 150.00 0.00 L 150.00 150.00 L 0.00 150.00 ZM 122.50 90.41 C126.58,87.73 127.56,83.63 125.61,77.43 C124.20,72.97 124.11,71.36 125.08,68.13 C126.74,62.59 124.11,55.84 119.11,52.80 C117.13,51.59 114.54,49.51 113.36,48.17 C110.72,45.18 108.67,46.01 110.01,49.54 C110.61,51.11 110.60,52.00 109.98,52.00 C108.25,52.00 107.49,51.52 107.80,50.61 C107.83,50.52 107.80,50.45 107.74,50.38 C107.65,49.97 106.73,49.94 104.77,50.26 C103.60,50.45 102.46,50.46 101.57,50.31 C100.91,50.19 100.40,50.00 100.13,49.73 C99.52,49.12 98.41,48.53 97.67,48.42 C96.92,48.31 94.44,47.04 92.14,45.59 C87.48,42.65 80.97,41.41 75.55,42.43 C70.75,43.32 71.77,44.42 76.33,44.33 C75.05,44.48 73.77,44.72 72.50,45.05 C66.30,46.67 64.80,47.69 59.98,53.54 C57.52,56.53 54.80,58.99 53.94,58.99 C52.43,59.00 46.97,63.97 46.65,65.61 C46.57,66.05 45.83,66.47 45.00,66.54 C40.68,66.93 37.00,68.32 37.00,69.56 C37.00,70.33 35.94,71.65 34.65,72.49 C31.65,74.46 30.00,78.12 30.01,82.80 C30.02,94.53 37.98,103.00 48.98,103.00 C51.10,103.00 52.98,103.45 53.17,103.99 C53.35,104.54 54.98,105.15 56.79,105.36 C57.02,105.39 57.25,105.42 57.47,105.46 C57.06,105.61 56.65,105.92 56.17,106.40 C54.82,107.75 54.80,108.02 56.04,108.12 C56.84,108.18 57.84,108.18 58.25,108.12 C58.66,108.05 59.00,108.65 59.00,109.45 C59.00,110.99 61.63,112.92 63.82,112.97 C64.54,112.99 66.11,112.48 67.32,111.85 C69.54,110.68 70.96,109.10 70.98,107.75 C70.99,107.34 68.95,107.00 66.43,107.00 C65.53,107.00 64.57,106.94 63.66,106.83 C65.71,106.88 68.65,106.81 71.81,106.62 C73.33,106.53 74.86,106.40 76.37,106.22 C76.09,106.27 75.80,106.34 75.50,106.41 C72.79,107.09 72.06,109.00 74.50,109.00 C75.32,109.00 76.00,109.45 76.00,110.00 C76.00,111.79 78.90,111.05 80.01,108.99 C81.06,107.03 80.02,105.93 77.57,106.07 C86.59,104.87 95.15,102.17 101.51,98.44 C103.90,97.04 107.51,93.70 110.85,90.07 C110.75,90.43 110.61,90.86 110.45,91.28 C109.99,92.46 110.86,92.65 115.05,92.32 C117.88,92.10 121.24,91.24 122.50,90.41 ZM 110.50 110.03 C110.50,109.22 109.60,108.09 108.50,107.52 C107.40,106.94 105.32,105.68 103.88,104.71 C101.81,103.31 100.71,103.16 98.56,103.98 C94.84,105.39 95.55,108.22 99.85,109.10 C101.68,109.48 103.70,110.30 104.34,110.94 C105.92,112.52 110.50,111.84 110.50,110.03 ZM 80.49 38.02 C81.72,36.65 83.01,36.22 84.64,36.62 C86.40,37.07 87.00,36.80 87.00,35.58 C87.00,33.37 84.17,32.41 81.88,33.84 C80.86,34.48 79.22,35.00 78.24,35.00 C77.25,35.00 75.50,35.66 74.35,36.46 C73.20,37.27 71.88,37.61 71.41,37.21 C70.95,36.82 71.17,37.29 71.91,38.25 C73.70,40.59 78.27,40.47 80.49,38.02 ZM 111.50 89.36 C114.96,85.52 118.02,81.48 118.98,79.13 C119.94,76.75 120.44,74.29 120.47,71.89 C121.00,77.63 120.77,84.09 119.54,85.32 C118.74,86.11 118.30,86.97 118.55,87.22 C118.81,87.47 118.15,88.46 117.09,89.42 C115.55,90.81 114.75,90.93 113.08,90.04 C112.45,89.71 111.89,89.47 111.50,89.36 ZM 37.98 62.84 C38.02,61.25 32.43,62.98 30.73,65.09 C28.95,67.28 28.94,67.49 30.57,68.67 C32.05,69.75 32.70,69.48 35.13,66.72 C36.69,64.95 37.98,63.20 37.98,62.84 ZM 47.78 107.44 C50.90,105.25 50.63,103.00 47.24,103.00 C43.89,103.00 40.93,106.71 43.16,108.12 C44.97,109.27 45.22,109.23 47.78,107.44 ZM 59.40 51.17 C58.61,51.00 58.20,50.48 58.48,50.04 C59.02,49.15 53.23,46.43 52.45,47.21 C52.19,47.48 52.55,49.08 53.26,50.76 C54.38,53.42 54.81,53.69 56.52,52.74 C58.36,51.72 58.39,51.78 57.00,53.53 C55.60,55.29 55.67,55.28 58.16,53.45 C59.99,52.11 60.38,51.40 59.40,51.17 ZM 92.81 111.75 C93.07,110.38 92.46,110.00 90.01,110.00 C86.25,110.00 82.70,111.71 83.56,113.10 C83.90,113.65 86.05,113.97 88.33,113.80 C91.34,113.58 92.57,113.02 92.81,111.75 ZM 95.54 40.39 C95.22,37.51 93.24,35.75 91.17,36.51 C90.44,36.78 89.35,37.00 88.76,37.00 C86.44,37.00 91.40,41.27 95.66,42.94 C95.75,42.97 95.69,41.82 95.54,40.39 ZM 119.59 63.17 C119.53,63.06 119.47,62.95 119.41,62.84 C118.82,61.60 117.15,59.40 115.42,57.62 C111.32,53.40 113.18,52.67 117.65,56.75 C121.12,59.92 122.15,62.13 121.02,63.97 C120.68,64.51 120.42,64.69 120.17,64.47 C120.01,64.04 119.81,63.60 119.59,63.17 ZM 35.41 103.76 C36.51,102.74 36.48,102.14 35.26,100.27 C34.45,99.03 33.36,98.28 32.84,98.60 C32.29,98.94 32.40,99.78 33.12,100.65 C34.09,101.82 34.06,102.05 32.98,101.81 C32.23,101.64 31.45,102.29 31.24,103.25 C30.79,105.31 33.41,105.63 35.41,103.76 ZM 52.55 112.91 C52.92,112.31 52.71,111.31 52.09,110.69 C50.83,109.43 47.93,110.70 47.23,112.82 C46.73,114.32 51.63,114.40 52.55,112.91 ZM 49.80 56.80 C51.55,55.05 51.27,54.00 49.06,54.00 C46.86,54.00 45.58,55.51 46.50,57.00 C47.32,58.32 48.34,58.26 49.80,56.80 ZM 90.00 105.00 C90.00,103.86 88.57,103.86 85.00,105.00 C82.77,105.71 82.90,105.81 86.25,105.90 C88.31,105.96 90.00,105.55 90.00,105.00 ZM 37.50 111.99 C37.85,111.44 37.40,110.71 36.52,110.37 C34.61,109.63 33.54,110.44 34.46,111.93 C35.29,113.28 36.69,113.30 37.50,111.99 ZM 111.10 55.47 C113.21,56.50 115.91,59.28 117.80,62.00 C118.09,62.46 118.38,62.95 118.65,63.45 C118.97,64.05 119.26,64.88 119.52,65.88 C119.02,64.45 118.34,63.09 117.46,61.85 C113.84,56.70 109.94,54.29 104.13,53.64 C103.58,53.58 103.04,53.48 102.52,53.37 C102.95,53.45 103.38,53.50 103.82,53.52 C105.84,53.62 109.12,54.50 111.10,55.47 ZM 39.00 100.61 C39.00,100.39 38.33,99.95 37.50,99.64 C36.67,99.32 36.00,99.50 36.00,100.03 C36.00,100.56 36.67,101.00 37.50,101.00 C38.33,101.00 39.00,100.82 39.00,100.61 ZM 90.46 46.26 C87.42,44.95 84.04,44.22 80.55,44.12 C84.00,44.13 87.36,44.86 90.46,46.26 ZM 99.54 52.31 C98.83,51.95 98.18,51.53 97.61,51.05 C98.25,51.55 98.90,51.97 99.54,52.31 Z" fill="rgb(31,43,52)"/>
<path d="M 60.79 106.49 C60.40,106.08 58.60,105.58 56.79,105.36 C54.98,105.15 53.35,104.54 53.17,103.99 C52.98,103.45 51.10,103.00 48.98,103.00 C37.98,103.00 30.02,94.53 30.01,82.80 C30.00,78.12 31.65,74.46 34.65,72.49 C35.94,71.65 37.00,70.33 37.00,69.56 C37.00,68.32 40.68,66.93 45.00,66.54 C45.83,66.47 46.57,66.05 46.65,65.61 C46.97,63.97 52.43,59.00 53.94,58.99 C54.80,58.99 57.52,56.53 59.98,53.54 C64.80,47.69 66.30,46.67 72.50,45.05 C81.55,42.70 91.09,44.86 97.13,50.63 C98.82,52.25 101.31,53.32 104.13,53.64 C109.94,54.29 113.84,56.70 117.46,61.85 C120.84,66.66 121.41,73.13 118.98,79.13 C117.06,83.88 106.56,95.48 101.51,98.44 C93.80,102.96 82.89,105.97 71.81,106.62 C66.14,106.96 61.18,106.90 60.79,106.49 Z" fill="rgb(140,206,6)"/>
<path d="M 60.79 106.49 C60.40,106.08 58.60,105.58 56.79,105.36 C54.98,105.15 53.35,104.54 53.17,103.99 C52.98,103.45 51.10,103.00 48.98,103.00 C37.98,103.00 30.02,94.53 30.01,82.80 C30.00,78.12 31.65,74.46 34.65,72.49 C35.94,71.65 37.00,70.33 37.00,69.56 C37.00,68.32 40.68,66.93 45.00,66.54 C45.83,66.47 46.57,66.05 46.65,65.61 C46.97,63.97 52.43,59.00 53.94,58.99 C54.80,58.99 57.52,56.53 59.98,53.54 C64.80,47.69 66.30,46.67 72.50,45.05 C81.55,42.70 91.09,44.86 97.13,50.63 C98.82,52.25 101.31,53.32 104.13,53.64 C109.94,54.29 113.84,56.70 117.46,61.85 C120.84,66.66 121.41,73.13 118.98,79.13 C117.06,83.88 106.56,95.48 101.51,98.44 C93.80,102.96 82.89,105.97 71.81,106.62 C66.14,106.96 61.18,106.90 60.79,106.49 ZM 80.23 101.55 C90.74,99.68 101.15,94.75 105.51,89.59 C107.41,87.34 109.86,84.56 110.95,83.42 C120.71,73.22 114.93,58.00 101.31,58.00 C98.14,58.00 96.74,57.33 93.97,54.47 C85.53,45.77 69.87,47.27 62.89,57.45 C61.60,59.34 58.86,61.84 56.80,62.99 C54.75,64.14 52.13,66.42 50.97,68.04 C49.81,69.67 47.97,71.00 46.88,71.00 C40.81,71.00 35.00,77.20 35.00,83.68 C35.00,91.70 39.65,97.31 47.28,98.49 C49.60,98.84 53.53,99.76 56.00,100.51 C64.92,103.24 69.61,103.44 80.23,101.55 ZM 91.33 68.42 C90.94,67.40 89.99,67.03 88.65,67.38 C86.01,68.07 83.00,65.41 83.00,62.40 C83.00,59.72 83.51,59.32 87.46,58.85 C89.99,58.55 90.82,59.11 93.30,62.79 C96.24,67.15 96.32,70.00 93.50,70.00 C92.64,70.00 91.66,69.29 91.33,68.42 Z" fill="rgb(162,207,67)"/>
<path d="M 60.79 106.49 C60.40,106.08 58.60,105.58 56.79,105.36 C54.98,105.15 53.35,104.54 53.17,103.99 C52.98,103.45 51.10,103.00 48.98,103.00 C37.98,103.00 30.02,94.53 30.01,82.80 C30.00,78.12 31.65,74.46 34.65,72.49 C35.94,71.65 37.00,70.33 37.00,69.56 C37.00,68.32 40.68,66.93 45.00,66.54 C45.83,66.47 46.57,66.05 46.65,65.61 C46.97,63.97 52.43,59.00 53.94,58.99 C54.80,58.99 57.52,56.53 59.98,53.54 C64.80,47.69 66.30,46.67 72.50,45.05 C81.55,42.70 91.09,44.86 97.13,50.63 C98.82,52.25 101.31,53.32 104.13,53.64 C109.94,54.29 113.84,56.70 117.46,61.85 C120.84,66.66 121.41,73.13 118.98,79.13 C117.06,83.88 106.56,95.48 101.51,98.44 C93.80,102.96 82.89,105.97 71.81,106.62 C66.14,106.96 61.18,106.90 60.79,106.49 ZM 80.23 101.55 C90.74,99.68 101.15,94.75 105.51,89.59 C107.41,87.34 109.86,84.56 110.95,83.42 C120.71,73.22 114.93,58.00 101.31,58.00 C98.14,58.00 96.74,57.33 93.97,54.47 C85.53,45.77 69.87,47.27 62.89,57.45 C61.60,59.34 58.86,61.84 56.80,62.99 C54.75,64.14 52.13,66.42 50.97,68.04 C49.81,69.67 47.97,71.00 46.88,71.00 C40.81,71.00 35.00,77.20 35.00,83.68 C35.00,91.70 39.65,97.31 47.28,98.49 C49.60,98.84 53.53,99.76 56.00,100.51 C64.92,103.24 69.61,103.44 80.23,101.55 ZM 91.36 68.49 C90.94,67.40 90.02,67.02 88.65,67.38 C85.98,68.08 83.00,65.40 83.00,62.31 C83.00,59.56 84.96,58.52 88.50,59.41 C90.42,59.89 91.00,60.69 91.00,62.85 C91.00,65.12 91.43,65.64 93.25,65.58 C94.85,65.52 95.50,66.07 95.50,67.49 C95.50,69.95 92.23,70.75 91.36,68.49 Z" fill="rgb(225,248,178)"/>
<path d="M 60.79 106.49 C60.40,106.08 58.60,105.58 56.79,105.36 C54.98,105.15 53.35,104.54 53.17,103.99 C52.98,103.45 51.10,103.00 48.98,103.00 C37.98,103.00 30.02,94.53 30.01,82.80 C30.00,78.12 31.65,74.46 34.65,72.49 C35.94,71.65 37.00,70.33 37.00,69.56 C37.00,68.32 40.68,66.93 45.00,66.54 C45.83,66.47 46.57,66.05 46.65,65.61 C46.97,63.97 52.43,59.00 53.94,58.99 C54.80,58.99 57.52,56.53 59.98,53.54 C64.80,47.69 66.30,46.67 72.50,45.05 C81.55,42.70 91.09,44.86 97.13,50.63 C98.82,52.25 101.31,53.32 104.13,53.64 C109.94,54.29 113.84,56.70 117.46,61.85 C120.84,66.66 121.41,73.13 118.98,79.13 C117.06,83.88 106.56,95.48 101.51,98.44 C93.80,102.96 82.89,105.97 71.81,106.62 C66.14,106.96 61.18,106.90 60.79,106.49 ZM 80.23 101.55 C90.74,99.68 101.15,94.75 105.51,89.59 C107.41,87.34 109.86,84.56 110.95,83.42 C120.71,73.22 114.93,58.00 101.31,58.00 C98.14,58.00 96.74,57.33 93.97,54.47 C85.53,45.77 69.87,47.27 62.89,57.45 C61.60,59.34 58.86,61.84 56.80,62.99 C54.75,64.14 52.13,66.42 50.97,68.04 C49.81,69.67 47.97,71.00 46.88,71.00 C40.81,71.00 35.00,77.20 35.00,83.68 C35.00,91.70 39.65,97.31 47.28,98.49 C49.60,98.84 53.53,99.76 56.00,100.51 C64.92,103.24 69.61,103.44 80.23,101.55 ZM 84.65 66.17 C82.59,63.89 82.51,60.13 84.50,59.36 C85.33,59.04 87.13,59.07 88.50,59.41 C90.46,59.90 91.00,60.68 91.00,62.98 C91.00,64.87 90.31,66.30 89.07,66.96 C86.56,68.31 86.59,68.31 84.65,66.17 Z" fill="rgb(244,251,233)"/>
</g>
</svg>